<svg width="22" height="22" viewBox="0 0 22 22" fill="none" xmlns="http://www.w3.org/2000/svg">
<g clip-path="url(#clip0_287_219)">
<path d="M21.9999 22H11.0164C8.87045 21.999 6.77168 21.3703 4.97858 20.1914C3.18548 19.0125 1.77637 17.3349 0.9248 15.3651C0.0732305 13.3954 -0.1836 11.2196 0.185942 9.10573C0.555485 6.99186 1.53526 5.03224 3.00459 3.46825C4.47392 1.90425 6.36862 0.804184 8.45533 0.303543C10.542 -0.197097 12.7296 -0.076446 14.7486 0.650636C16.7676 1.37772 18.5299 2.67948 19.8183 4.39557C21.1067 6.11167 21.865 8.16715 21.9999 10.3088V10.3666V22ZM11.0164 1.83333C8.58523 1.83333 6.25365 2.7991 4.53456 4.51819C2.81548 6.23727 1.84971 8.56885 1.84971 11C1.84971 13.4312 2.81548 15.7627 4.53456 17.4818C6.25365 19.2009 8.58523 20.1667 11.0164 20.1667H20.1665V10.3959C20.0094 8.07521 18.9774 5.90061 17.279 4.31129C15.5806 2.72198 13.3424 1.83638 11.0164 1.83333Z" fill="#0086FF"/>
<path d="M11.917 6.41699H6.41696V8.25032H11.917V6.41699Z" fill="#0086FF"/>
<path d="M15.5836 10.083H6.41696V11.9164H15.5836V10.083Z" fill="#0086FF"/>
<path d="M15.5836 13.75H6.41696V15.5833H15.5836V13.75Z" fill="#0086FF"/>
</g>
<defs>
<clipPath id="clip0_287_219">
<rect width="22" height="22" fill="white"/>
</clipPath>
</defs>
</svg>
