<svg width="22" height="22" viewBox="0 0 22 22" fill="none" xmlns="http://www.w3.org/2000/svg">
<g clip-path="url(#clip0_287_249)">
<path d="M12.2265 0.763654C11.8898 0.460638 11.4529 0.292969 11 0.292969C10.5471 0.292969 10.1102 0.460638 9.7735 0.763654L0 9.55999V19.0933C0 19.8713 0.309047 20.6174 0.859153 21.1675C1.40926 21.7176 2.15536 22.0267 2.93333 22.0267H19.0667C19.8446 22.0267 20.5907 21.7176 21.1408 21.1675C21.691 20.6174 22 19.8713 22 19.0933V9.55999L12.2265 0.763654ZM13.75 20.1906H8.25V15.5834C8.25 14.8541 8.53973 14.1546 9.05546 13.6389C9.57118 13.1231 10.2707 12.8334 11 12.8334C11.7293 12.8334 12.4288 13.1231 12.9445 13.6389C13.4603 14.1546 13.75 14.8541 13.75 15.5834V20.1906ZM20.1667 19.0906C20.1667 19.3823 20.0508 19.6621 19.8445 19.8684C19.6382 20.0747 19.3584 20.1906 19.0667 20.1906H15.5833V15.5834C15.5833 14.3678 15.1004 13.202 14.2409 12.3425C13.3814 11.483 12.2156 11.0001 11 11.0001C9.78442 11.0001 8.61864 11.483 7.75909 12.3425C6.89955 13.202 6.41667 14.3678 6.41667 15.5834V20.1906H2.93333C2.6416 20.1906 2.36181 20.0747 2.15552 19.8684C1.94923 19.6621 1.83333 19.3823 1.83333 19.0906V10.3758L11 2.12582L20.1667 10.3758V19.0906Z" fill="#0086FF"/>
</g>
<defs>
<clipPath id="clip0_287_249">
<rect width="22" height="22" fill="white"/>
</clipPath>
</defs>
</svg>
