<svg width="22" height="22" viewBox="0 0 22 22" fill="none" xmlns="http://www.w3.org/2000/svg">
<g clip-path="url(#clip0_287_221)">
<path d="M22 2.75C22 2.02065 21.7103 1.32118 21.1945 0.805456C20.6788 0.289731 19.9793 0 19.25 0L2.75 0C2.02065 0 1.32118 0.289731 0.805456 0.805456C0.289731 1.32118 0 2.02065 0 2.75L0 8.25H0.916667V22H21.0833V8.25H22V2.75ZM1.83333 2.75C1.83333 2.50688 1.92991 2.27373 2.10182 2.10182C2.27373 1.92991 2.50688 1.83333 2.75 1.83333H19.25C19.4931 1.83333 19.7263 1.92991 19.8982 2.10182C20.0701 2.27373 20.1667 2.50688 20.1667 2.75V6.41667H1.83333V2.75ZM19.25 20.1667H2.75V8.25H19.25V20.1667Z" fill="#0086FF"/>
<path d="M14.6664 11H7.33304V12.8333H14.6664V11Z" fill="#0086FF"/>
</g>
<defs>
<clipPath id="clip0_287_221">
<rect width="22" height="22" fill="white"/>
</clipPath>
</defs>
</svg>
