<svg width="22" height="22" viewBox="0 0 22 22" fill="none" xmlns="http://www.w3.org/2000/svg">
<g clip-path="url(#clip0_287_220)">
<path d="M19.25 22.0007H17.4167V17.3779C17.4159 16.6592 17.1301 15.9702 16.622 15.462C16.1138 14.9539 15.4248 14.668 14.7061 14.6673H7.29392C6.57525 14.668 5.88622 14.9539 5.37805 15.462C4.86987 15.9702 4.58406 16.6592 4.58333 17.3779V22.0007H2.75V17.3779C2.75146 16.1732 3.23066 15.0183 4.08249 14.1665C4.93432 13.3146 6.08924 12.8354 7.29392 12.834H14.7061C15.9108 12.8354 17.0657 13.3146 17.9175 14.1665C18.7693 15.0183 19.2485 16.1732 19.25 17.3779V22.0007Z" fill="#0086FF"/>
<path d="M10.9999 11C9.91214 11 8.84878 10.6774 7.94431 10.0731C7.03983 9.46874 6.33489 8.60976 5.9186 7.60476C5.50232 6.59977 5.3934 5.4939 5.60562 4.42701C5.81784 3.36011 6.34167 2.3801 7.11085 1.61092C7.88004 0.841726 8.86005 0.317902 9.92695 0.105683C10.9938 -0.106535 12.0997 0.00238307 13.1047 0.418665C14.1097 0.834947 14.9687 1.5399 15.573 2.44437C16.1774 3.34884 16.4999 4.41221 16.4999 5.5C16.4985 6.95825 15.9186 8.35635 14.8874 9.38748C13.8563 10.4186 12.4582 10.9985 10.9999 11ZM10.9999 1.83334C10.2747 1.83334 9.56583 2.04838 8.96285 2.45128C8.35987 2.85418 7.8899 3.42683 7.61238 4.09683C7.33486 4.76683 7.26225 5.50407 7.40373 6.21533C7.54521 6.9266 7.89442 7.57994 8.40722 8.09273C8.92001 8.60552 9.57335 8.95474 10.2846 9.09622C10.9959 9.23769 11.7331 9.16508 12.4031 8.88756C13.0731 8.61004 13.6458 8.14007 14.0487 7.53709C14.4516 6.93411 14.6666 6.2252 14.6666 5.5C14.6666 4.52754 14.2803 3.59491 13.5927 2.90728C12.905 2.21964 11.9724 1.83334 10.9999 1.83334Z" fill="#0086FF"/>
</g>
<defs>
<clipPath id="clip0_287_220">
<rect width="22" height="22" fill="white"/>
</clipPath>
</defs>
</svg>
