<svg width="24" height="24" viewBox="0 0 24 24" fill="none" xmlns="http://www.w3.org/2000/svg">
<rect width="24" height="24" rx="4" fill="#0088FF"/>
<g clip-path="url(#clip0_1247_4416)">
<path d="M18.75 8.25H16.3995C16.9193 7.77606 17.3312 7.19596 17.6074 6.54898C17.8835 5.90199 18.0174 5.20323 18 4.5H16.5C16.5 6.66075 15.0217 7.73025 13.386 8.1C13.8772 7.22385 14.172 6.25139 14.25 5.25C14.25 4.65326 14.0129 4.08097 13.591 3.65901C13.169 3.23705 12.5967 3 12 3C11.4033 3 10.831 3.23705 10.409 3.65901C9.98705 4.08097 9.75 4.65326 9.75 5.25C9.82804 6.25139 10.1228 7.22385 10.614 8.1C8.97825 7.73025 7.5 6.66075 7.5 4.5H6C5.98259 5.20323 6.11649 5.90199 6.39262 6.54898C6.66876 7.19596 7.08068 7.77606 7.6005 8.25H5.25C4.65326 8.25 4.08097 8.48705 3.65901 8.90901C3.23705 9.33097 3 9.90326 3 10.5L3 13.5H4.5V21H19.5V13.5H21V10.5C21 9.90326 20.7629 9.33097 20.341 8.90901C19.919 8.48705 19.3467 8.25 18.75 8.25ZM12 4.5C12.1989 4.5 12.3897 4.57902 12.5303 4.71967C12.671 4.86032 12.75 5.05109 12.75 5.25C12.6595 6.04712 12.404 6.81668 12 7.50975C11.596 6.81668 11.3405 6.04712 11.25 5.25C11.25 5.05109 11.329 4.86032 11.4697 4.71967C11.6103 4.57902 11.8011 4.5 12 4.5ZM4.5 10.5C4.5 10.3011 4.57902 10.1103 4.71967 9.96967C4.86032 9.82902 5.05109 9.75 5.25 9.75H11.25V12H4.5V10.5ZM6 13.5H11.25V19.5H6V13.5ZM18 19.5H12.75V13.5H18V19.5ZM19.5 12H12.75V9.75H18.75C18.9489 9.75 19.1397 9.82902 19.2803 9.96967C19.421 10.1103 19.5 10.3011 19.5 10.5V12Z" fill="white"/>
</g>
<defs>
<clipPath id="clip0_1247_4416">
<rect width="18" height="18" fill="white" transform="translate(3 3)"/>
</clipPath>
</defs>
</svg>
