<svg width="24" height="24" viewBox="0 0 24 24" fill="none" xmlns="http://www.w3.org/2000/svg">
<rect width="24" height="24" rx="4" fill="#0088FF"/>
<g clip-path="url(#clip0_1247_4399)">
<path d="M21 5.25C21 4.65326 20.7629 4.08097 20.341 3.65901C19.919 3.23705 19.3467 3 18.75 3H5.25C4.65326 3 4.08097 3.23705 3.65901 3.65901C3.23705 4.08097 3 4.65326 3 5.25L3 9.75H3.75V21H20.25V9.75H21V5.25ZM4.5 5.25C4.5 5.05109 4.57902 4.86032 4.71967 4.71967C4.86032 4.57902 5.05109 4.5 5.25 4.5H18.75C18.9489 4.5 19.1397 4.57902 19.2803 4.71967C19.421 4.86032 19.5 5.05109 19.5 5.25V8.25H4.5V5.25ZM18.75 19.5H5.25V9.75H18.75V19.5Z" fill="white"/>
<path d="M15 12H9V13.5H15V12Z" fill="white"/>
</g>
<defs>
<clipPath id="clip0_1247_4399">
<rect width="18" height="18" fill="white" transform="translate(3 3)"/>
</clipPath>
</defs>
</svg>
