<svg width="24" height="24" viewBox="0 0 24 24" fill="none" xmlns="http://www.w3.org/2000/svg">
<rect width="24" height="24" rx="4" fill="#0088FF"/>
<path d="M12 19.7273C12.2429 19.7273 12.4466 19.64 12.6111 19.4655C12.7751 19.2915 12.8571 19.0758 12.8571 18.8182C12.8571 18.5606 12.7751 18.3448 12.6111 18.1709C12.4466 17.9964 12.2429 17.9091 12 17.9091C11.7571 17.9091 11.5537 17.9964 11.3897 18.1709C11.2251 18.3448 11.1429 18.5606 11.1429 18.8182C11.1429 19.0758 11.2251 19.2915 11.3897 19.4655C11.5537 19.64 11.7571 19.7273 12 19.7273ZM7.47781 15.9671H16.6025V6.21769H7.47781V15.9671ZM7.71429 22C7.24286 22 6.83943 21.8221 6.504 21.4664C6.168 21.11 6 20.6818 6 20.1818V3.81818C6 3.31818 6.168 2.89 6.504 2.53364C6.83943 2.17788 7.24286 2 7.71429 2H16.2857C16.7571 2 17.1609 2.17788 17.4969 2.53364C17.8323 2.89 18 3.31818 18 3.81818V20.1818C18 20.6818 17.8323 21.11 17.4969 21.4664C17.1609 21.8221 16.7571 22 16.2857 22H7.71429ZM7.47781 4.72727H16.6025V3.46037H7.47781V4.72727ZM7.47781 17.4545V20.4754H16.6025V17.4545H7.47781Z" fill="white"/>
</svg>
