<svg width="12" height="13" viewBox="0 0 12 13" fill="none" xmlns="http://www.w3.org/2000/svg">
<g clip-path="url(#clip0_1174_529)">
<path fill-rule="evenodd" clip-rule="evenodd" d="M8.33594 7.06494C9.02094 7.52994 9.50094 8.15994 9.50094 8.99994V10.4999H11.0009C11.2759 10.4999 11.5009 10.2749 11.5009 9.99994V8.99994C11.5009 7.90994 9.71594 7.26494 8.33594 7.06494Z" fill="#FF7700"/>
<path d="M4.5 6.5C5.60457 6.5 6.5 5.60457 6.5 4.5C6.5 3.39543 5.60457 2.5 4.5 2.5C3.39543 2.5 2.5 3.39543 2.5 4.5C2.5 5.60457 3.39543 6.5 4.5 6.5Z" fill="#FF7700"/>
<path fill-rule="evenodd" clip-rule="evenodd" d="M7.50094 6.5C8.60594 6.5 9.50094 5.605 9.50094 4.5C9.50094 3.395 8.60594 2.5 7.50094 2.5C7.26594 2.5 7.04594 2.55 6.83594 2.62C7.25094 3.135 7.50094 3.79 7.50094 4.5C7.50094 5.21 7.25094 5.865 6.83594 6.38C7.04594 6.45 7.26594 6.5 7.50094 6.5Z" fill="#FF7700"/>
<path fill-rule="evenodd" clip-rule="evenodd" d="M4.5 7C3.165 7 0.5 7.67 0.5 9V10C0.5 10.275 0.725 10.5 1 10.5H8C8.275 10.5 8.5 10.275 8.5 10V9C8.5 7.67 5.835 7 4.5 7Z" fill="#FF7700"/>
</g>
<defs>
<clipPath id="clip0_1174_529">
<rect width="12" height="12" fill="white" transform="translate(0 0.5)"/>
</clipPath>
</defs>
</svg>
