<svg width="12" height="13" viewBox="0 0 12 13" fill="none" xmlns="http://www.w3.org/2000/svg">
<g clip-path="url(#clip0_1174_1022)">
<path d="M12 4.77V3.5C12 2.95 11.505 2.5 10.9 2.5H2.1C1.495 2.5 1.0055 2.945 1.0055 3.5V4.77C1.0055 5.115 1.187 5.455 1.5225 5.615C1.869 5.79 2.1 6.12 2.1 6.5C2.1 6.88 1.8635 7.215 1.517 7.38C1.187 7.545 1 7.885 1 8.23V9.5C1 10.05 1.495 10.5 2.1 10.5H10.9C11.505 10.5 12 10.05 12 9.5V8.23C12 7.885 11.813 7.545 11.483 7.38C11.1365 7.21 10.9 6.88 10.9 6.5C10.9 6.12 11.1365 5.79 11.483 5.62C11.813 5.455 12 5.115 12 4.77ZM7.05 9.25H5.95V8.25H7.05V9.25ZM7.05 7H5.95V6H7.05V7ZM7.05 4.75H5.95V3.75H7.05V4.75Z" fill="#FF7700"/>
</g>
<defs>
<clipPath id="clip0_1174_1022">
<rect width="12" height="12" fill="white" transform="translate(0 0.5)"/>
</clipPath>
</defs>
</svg>
