<svg width="16" height="16" viewBox="0 0 16 16" fill="none" xmlns="http://www.w3.org/2000/svg">
<g clip-path="url(#clip0_104_751)">
<path d="M16 8L13.6566 10.3434V13.6566H10.3434L8 16L5.65656 13.6566H2.34344V10.3434L0 8L2.34344 5.65656V2.34344H5.65656L8 0L10.3434 2.34344H13.6566V5.65656L16 8ZM12.7141 9.39937L14.1141 7.99937L12.7141 6.59937L12.3234 6.20937V3.67594H9.79L9.4 3.28531L8 1.88531V1.88594L6.20937 3.67656H3.67594V6.21L3.28531 6.6L1.88531 8L3.28594 9.4L3.67656 9.78938V12.3228H6.21L6.6 12.7134L8 14.1134L9.4 12.7134L9.79 12.3228H12.3234V9.78938L12.7141 9.39937Z" fill="#0088FF"/>
</g>
<defs>
<clipPath id="clip0_104_751">
<rect width="16" height="16" fill="white"/>
</clipPath>
</defs>
</svg>
