<svg width="12" height="13" viewBox="0 0 12 13" fill="none" xmlns="http://www.w3.org/2000/svg">
<g clip-path="url(#clip0_1105_3094)">
<path d="M1.2 11.1C0.87 11.1 0.5876 10.9826 0.3528 10.7478C0.1176 10.5126 0 10.23 0 9.9V7.5C0.33 7.5 0.6126 7.3824 0.8478 7.1472C1.0826 6.9124 1.2 6.63 1.2 6.3C1.2 5.97 1.0826 5.6874 0.8478 5.4522C0.6126 5.2174 0.33 5.1 0 5.1V2.7C0 2.37 0.1176 2.0876 0.3528 1.8528C0.5876 1.6176 0.87 1.5 1.2 1.5H10.8C11.13 1.5 11.4126 1.6176 11.6478 1.8528C11.8826 2.0876 12 2.37 12 2.7V5.1C11.67 5.1 11.3874 5.2174 11.1522 5.4522C10.9174 5.6874 10.8 5.97 10.8 6.3C10.8 6.63 10.9174 6.9124 11.1522 7.1472C11.3874 7.3824 11.67 7.5 12 7.5V9.9C12 10.23 11.8826 10.5126 11.6478 10.7478C11.4126 10.9826 11.13 11.1 10.8 11.1H1.2ZM1.2 9.9H10.8V8.37C10.43 8.15 10.1376 7.8576 9.9228 7.4928C9.7076 7.1276 9.6 6.73 9.6 6.3C9.6 5.87 9.7076 5.4724 9.9228 5.1072C10.1376 4.7424 10.43 4.45 10.8 4.23V2.7H1.2V4.23C1.57 4.45 1.8626 4.7424 2.0778 5.1072C2.2926 5.4724 2.4 5.87 2.4 6.3C2.4 6.73 2.2926 7.1276 2.0778 7.4928C1.8626 7.8576 1.57 8.15 1.2 8.37V9.9ZM6 9.3C6.17 9.3 6.3126 9.2424 6.4278 9.1272C6.5426 9.0124 6.6 8.87 6.6 8.7C6.6 8.53 6.5426 8.3874 6.4278 8.2722C6.3126 8.1574 6.17 8.1 6 8.1C5.83 8.1 5.6876 8.1574 5.5728 8.2722C5.4576 8.3874 5.4 8.53 5.4 8.7C5.4 8.87 5.4576 9.0124 5.5728 9.1272C5.6876 9.2424 5.83 9.3 6 9.3ZM6 6.9C6.17 6.9 6.3126 6.8424 6.4278 6.7272C6.5426 6.6124 6.6 6.47 6.6 6.3C6.6 6.13 6.5426 5.9874 6.4278 5.8722C6.3126 5.7574 6.17 5.7 6 5.7C5.83 5.7 5.6876 5.7574 5.5728 5.8722C5.4576 5.9874 5.4 6.13 5.4 6.3C5.4 6.47 5.4576 6.6124 5.5728 6.7272C5.6876 6.8424 5.83 6.9 6 6.9ZM6 4.5C6.17 4.5 6.3126 4.4424 6.4278 4.3272C6.5426 4.2124 6.6 4.07 6.6 3.9C6.6 3.73 6.5426 3.5874 6.4278 3.4722C6.3126 3.3574 6.17 3.3 6 3.3C5.83 3.3 5.6876 3.3574 5.5728 3.4722C5.4576 3.5874 5.4 3.73 5.4 3.9C5.4 4.07 5.4576 4.2124 5.5728 4.3272C5.6876 4.4424 5.83 4.5 6 4.5Z" fill="#FF7700"/>
</g>
<defs>
<clipPath id="clip0_1105_3094">
<rect width="12" height="12" fill="white" transform="translate(0 0.5)"/>
</clipPath>
</defs>
</svg>
