<svg width="12" height="13" viewBox="0 0 12 13" fill="none" xmlns="http://www.w3.org/2000/svg">
<g clip-path="url(#clip0_1247_3896)">
<path d="M11.5 7C11.4982 5.62866 10.9846 4.30738 10.0598 3.29481C9.135 2.28224 7.86556 1.6513 6.50001 1.5255V0.5H5.50001V1.5255C4.47715 1.6169 3.50045 1.99343 2.68094 2.6123C1.86143 3.23116 1.23199 4.06753 0.864157 5.02633C0.496327 5.98512 0.404869 7.02788 0.600181 8.03607C0.795492 9.04426 1.26974 9.97743 1.969 10.7295L1.005 11.7885L1.74501 12.4615L2.71201 11.4C3.65913 12.1148 4.8134 12.5015 6.00001 12.5015C7.18661 12.5015 8.34088 12.1148 9.28801 11.4L10.255 12.463L10.995 11.79L10.031 10.731C10.9749 9.7179 11.4999 8.3847 11.5 7ZM6.00001 11.5C5.10999 11.5 4.23996 11.2361 3.49994 10.7416C2.75992 10.2471 2.18314 9.54434 1.84255 8.72208C1.50195 7.89981 1.41284 6.99501 1.58647 6.12209C1.7601 5.24918 2.18869 4.44736 2.81802 3.81802C3.44736 3.18868 4.24918 2.7601 5.1221 2.58647C5.99501 2.41283 6.89981 2.50195 7.72208 2.84254C8.54435 3.18314 9.24715 3.75991 9.74162 4.49993C10.2361 5.23995 10.5 6.10998 10.5 7C10.4986 8.19303 10.024 9.33677 9.18038 10.1804C8.33678 11.024 7.19303 11.4985 6.00001 11.5Z" fill="#FF7700"/>
<path d="M2.76081 1.37258L2.22731 0.528076C1.36429 1.0344 0.609972 1.70647 0.0078125 2.50558L0.839312 3.06008C1.36314 2.37718 2.016 1.80383 2.76081 1.37258Z" fill="#FF7700"/>
<path d="M11.1598 3.06008L11.9913 2.50558C11.3891 1.70647 10.6348 1.0344 9.77178 0.528076L9.23828 1.37258C9.9831 1.80383 10.636 2.37718 11.1598 3.06008Z" fill="#FF7700"/>
<path d="M5.5 4V6.707L7.1465 8.3535L7.85349 7.6465L6.5 6.293V4H5.5Z" fill="#FF7700"/>
</g>
<defs>
<clipPath id="clip0_1247_3896">
<rect width="12" height="12" fill="white" transform="translate(0 0.5)"/>
</clipPath>
</defs>
</svg>
