<svg width="12" height="13" viewBox="0 0 12 13" fill="none" xmlns="http://www.w3.org/2000/svg">
<g clip-path="url(#clip0_1174_276)">
<path d="M8.77778 1.5C8.47222 1.5 8.22222 1.7475 8.22222 2.05V2.6H3.77778V2.05C3.77778 1.7475 3.52778 1.5 3.22222 1.5C2.91667 1.5 2.66667 1.7475 2.66667 2.05V2.6H2.11111C1.49444 2.6 1.00556 3.095 1.00556 3.7L1 11.4C1 12.005 1.49444 12.5 2.11111 12.5H9.88889C10.5 12.5 11 12.005 11 11.4V3.7C11 3.095 10.5 2.6 9.88889 2.6H9.33333V2.05C9.33333 1.7475 9.08333 1.5 8.77778 1.5ZM9.88889 11.4H2.11111V5.9H9.88889V11.4ZM5.44444 7.55C5.44444 7.2475 5.69444 7 6 7C6.30556 7 6.55556 7.2475 6.55556 7.55C6.55556 7.8525 6.30556 8.1 6 8.1C5.69444 8.1 5.44444 7.8525 5.44444 7.55ZM3.22222 7.55C3.22222 7.2475 3.47222 7 3.77778 7C4.08333 7 4.33333 7.2475 4.33333 7.55C4.33333 7.8525 4.08333 8.1 3.77778 8.1C3.47222 8.1 3.22222 7.8525 3.22222 7.55ZM7.66667 7.55C7.66667 7.2475 7.91667 7 8.22222 7C8.52778 7 8.77778 7.2475 8.77778 7.55C8.77778 7.8525 8.52778 8.1 8.22222 8.1C7.91667 8.1 7.66667 7.8525 7.66667 7.55ZM5.44444 9.75C5.44444 9.4475 5.69444 9.2 6 9.2C6.30556 9.2 6.55556 9.4475 6.55556 9.75C6.55556 10.0525 6.30556 10.3 6 10.3C5.69444 10.3 5.44444 10.0525 5.44444 9.75ZM3.22222 9.75C3.22222 9.4475 3.47222 9.2 3.77778 9.2C4.08333 9.2 4.33333 9.4475 4.33333 9.75C4.33333 10.0525 4.08333 10.3 3.77778 10.3C3.47222 10.3 3.22222 10.0525 3.22222 9.75ZM7.66667 9.75C7.66667 9.4475 7.91667 9.2 8.22222 9.2C8.52778 9.2 8.77778 9.4475 8.77778 9.75C8.77778 10.0525 8.52778 10.3 8.22222 10.3C7.91667 10.3 7.66667 10.0525 7.66667 9.75Z" fill="#FF7700"/>
</g>
<defs>
<clipPath id="clip0_1174_276">
<rect width="12" height="12" fill="white" transform="translate(0 0.5)"/>
</clipPath>
</defs>
</svg>
