<svg width="13" height="17" viewBox="0 0 13 17" fill="none" xmlns="http://www.w3.org/2000/svg">
<g clip-path="url(#clip0_288_415)">
<path d="M0 16.75V1.81C0 1.3 0.18 0.88 0.53 0.53C0.88 0.18 1.31 0 1.81 0H11.19C11.7 0 12.12 0.18 12.47 0.53C12.82 0.88 13 1.31 13 1.81V16.75L6.5 13.96L0 16.75ZM1.5 14.45L6.5 12.3L11.5 14.45V1.81C11.5 1.73 11.47 1.66 11.4 1.6C11.34 1.54 11.27 1.5 11.19 1.5H1.81C1.73 1.5 1.66 1.53 1.6 1.6C1.54 1.66 1.5 1.73 1.5 1.81V14.45Z" fill="#5F6368"/>
</g>
<defs>
<clipPath id="clip0_288_415">
<rect width="13" height="16.75" fill="white"/>
</clipPath>
</defs>
</svg>
