<svg width="31" height="31" viewBox="0 0 31 31" fill="none" xmlns="http://www.w3.org/2000/svg">
<circle cx="15.5" cy="15.5" r="15.5" fill="black" fill-opacity="0.3"/>
<g clip-path="url(#clip0_288_426)">
<path d="M15.5 25L14.1546 23.695C12.573 22.2316 11.2276 20.9266 10.1954 19.8647C9.16324 18.8028 8.29541 17.8306 7.66378 16.9325C7.03216 16.0343 6.63676 15.3053 6.39541 14.5709C6.15405 13.8365 6 13.1021 6 12.3731C6 10.8251 6.47757 9.60464 7.50459 8.54271C8.53162 7.49134 9.72297 7 11.2276 7C12.7322 7 12.8092 7.16378 13.6051 7.57059C14.4011 7.9774 15.0327 8.46874 15.5051 9.11858C16.0597 8.46874 16.6914 7.9774 17.4051 7.57059C18.1189 7.16378 18.9097 7 19.7827 7C21.2873 7 22.4735 7.49134 23.5057 8.54799C24.5378 9.60464 25.0103 10.8303 25.0103 12.3783C25.0103 13.9263 24.8511 13.8471 24.6149 14.5762C24.3786 15.3053 23.9011 16.0449 23.3465 16.9378C22.7919 17.8359 21.9241 18.7288 20.8919 19.87C19.8649 21.0112 18.5143 22.2316 16.9327 23.7003L15.5873 25.0053H15.5103L15.5 25Z" fill="#FF0000"/>
</g>
<defs>
<clipPath id="clip0_288_426">
<rect width="19" height="18" fill="white" transform="translate(6 7)"/>
</clipPath>
</defs>
</svg>
