<svg width="136" height="23" viewBox="0 0 136 23" fill="none" xmlns="http://www.w3.org/2000/svg">
<path d="M11.8812 11.5C11.8812 5.27787 16.8188 0.209837 22.9873 0.00912336V0H0V8.26121H7.36762V23H15.6243V19.9893C13.3264 17.8864 11.8812 14.862 11.8812 11.5Z" fill="#0086FF"/>
<path d="M34.3762 8.15629L23.4068 11.4681L29.352 1.67414C27.6104 0.611265 25.5633 0 23.3749 0C23.2472 0 23.115 0 22.9874 0.00912336V8.26121H15.6198V19.9893C17.6623 21.8596 20.3841 23 23.3703 23C29.7167 23 34.864 17.8499 34.864 11.5C34.864 10.3368 34.6908 9.2146 34.3716 8.15629H34.3762Z" fill="#FF6700"/>
<path d="M22.9874 8.26121V0.00912476C16.8188 0.2144 11.8812 5.28243 11.8812 11.5C11.8812 14.862 13.3219 17.8864 15.6243 19.9893V8.26121H22.9919H22.9874Z" fill="#FFCA7D"/>
<path d="M44.3699 6.47758H40.1344V3.95041H51.66V6.47758H47.3835V19.0496H44.3699V6.47758Z" fill="#0086FF"/>
<path d="M54.1036 3.95041H63.3496V6.47758H57.1172V9.96271H62.4104V12.4899H57.1172V16.5224H63.573V19.0496H54.1036V3.95041Z" fill="#0086FF"/>
<path d="M69.5228 3.95041H73.0653L77.9117 19.0496H74.7567L73.699 15.1767H68.8116L67.7539 19.0496H64.6992L69.5274 3.95041H69.5228ZM69.459 12.8366H73.0425L72.5957 11.1852C72.1261 9.61602 71.7203 7.88258 71.2918 6.25406H71.1915C70.8039 7.90539 70.3571 9.61602 69.9103 11.1852L69.4635 12.8366H69.459Z" fill="#0086FF"/>
<path d="M79.6852 3.95041H83.0271L85.5939 11.021C85.9176 11.9562 86.2048 12.9552 86.5103 13.9131H86.6106C86.9343 12.9552 87.1987 11.9562 87.5269 11.021L90.0299 3.95041H93.3718V19.0496H90.6226V12.7545C90.6226 11.3266 90.846 9.22828 91.0102 7.80503H90.9099L89.688 11.3495L87.3674 17.6856H85.6349L83.2915 11.3495L82.0879 7.80503H82.0058C82.1471 9.23284 82.3933 11.3312 82.3933 12.7545V19.0496H79.6852V3.95041Z" fill="#0086FF"/>
<path d="M101.701 3.95041H110.947V6.47758H104.715V9.96271H110.008V12.4899H104.715V16.5224H111.171V19.0496H101.701V3.95041Z" fill="#0086FF"/>
<path d="M117.12 3.95041H120.663L125.509 19.0496H122.354L121.297 15.1767H116.409L115.352 19.0496H112.297L117.125 3.95041H117.12ZM117.061 12.8366H120.645L120.198 11.1852C119.728 9.61602 119.323 7.88258 118.894 6.25406H118.794C118.406 7.90539 117.959 9.61602 117.513 11.1852L117.066 12.8366H117.061Z" fill="#0086FF"/>
<path d="M128.71 6.47758H124.474V3.95041H136V6.47758H131.724V19.0496H128.71V6.47758Z" fill="#0086FF"/>
</svg>
