<svg width="52" height="61" viewBox="0 0 52 61" fill="none" xmlns="http://www.w3.org/2000/svg">
<g filter="url(#filter0_d_37_41)">
<path d="M18.9741 43.9999C20.0511 44.0082 21.0687 43.5078 21.7129 42.6511C22.1833 42.0256 22.6821 41.3694 23.1943 40.6967C25.7091 37.391 28.5582 33.6379 30.8726 29.8599C33.6465 25.3115 35 21.7158 35 18.8657C35 10.1168 27.823 3 19 3C10.177 3 3 10.1168 3 18.8657C3 21.7158 4.35352 25.3115 7.12742 29.8599C9.43342 33.6379 12.2909 37.391 14.8057 40.6967C15.3171 41.3678 15.815 42.0223 16.2846 42.647C16.9187 43.4904 17.913 43.9916 18.9741 43.9991V43.9999Z" fill="white"/>
</g>
<defs>
<filter id="filter0_d_37_41" x="0" y="0" width="52" height="61" filterUnits="userSpaceOnUse" color-interpolation-filters="sRGB">
<feFlood flood-opacity="0" result="BackgroundImageFix"/>
<feColorMatrix in="SourceAlpha" type="matrix" values="0 0 0 0 0 0 0 0 0 0 0 0 0 0 0 0 0 0 127 0" result="hardAlpha"/>
<feOffset dx="7" dy="7"/>
<feGaussianBlur stdDeviation="5"/>
<feColorMatrix type="matrix" values="0 0 0 0 0.239216 0 0 0 0 0.239216 0 0 0 0 0.239216 0 0 0 0.75 0"/>
<feBlend mode="normal" in2="BackgroundImageFix" result="effect1_dropShadow_37_41"/>
<feBlend mode="normal" in="SourceGraphic" in2="effect1_dropShadow_37_41" result="shape"/>
</filter>
</defs>
</svg>
