<svg width="16" height="16" viewBox="0 0 16 16" fill="none" xmlns="http://www.w3.org/2000/svg">
<g clip-path="url(#clip0_288_444)">
<path d="M15.9999 15.0592L11.8334 10.8927C14.1632 8.04334 13.742 3.84481 10.8926 1.51503C8.04321 -0.814752 3.84469 -0.393533 1.51491 2.45587C-0.81487 5.30528 -0.393652 9.50378 2.45572 11.8336C4.91003 13.8403 8.43827 13.8403 10.8926 11.8336L15.0591 16.0001L15.9999 15.0592ZM6.68481 12.0079C3.74503 12.0079 1.36188 9.62472 1.36188 6.68494C1.36188 3.74515 3.74503 1.362 6.68481 1.362C9.62459 1.362 12.0077 3.74515 12.0077 6.68494C12.0044 9.62334 9.62321 12.0046 6.68481 12.0079Z" fill="#606060"/>
</g>
<defs>
<clipPath id="clip0_288_444">
<rect width="16" height="16" fill="white"/>
</clipPath>
</defs>
</svg>
