<svg width="24" height="25" viewBox="0 0 24 25" fill="none" xmlns="http://www.w3.org/2000/svg">
<g clip-path="url(#clip0_158_1052)">
<path d="M12 0.769531C9.62663 0.769531 7.30655 1.47332 5.33316 2.7919C3.35977 4.11047 1.8217 5.98462 0.913451 8.17733C0.00519943 10.37 -0.232441 12.7828 0.230582 15.1106C0.693605 17.4384 1.83649 19.5766 3.51472 21.2548C5.19295 22.933 7.33115 24.0759 9.65892 24.539C11.9867 25.002 14.3995 24.7643 16.5922 23.8561C18.7849 22.9478 20.6591 21.4098 21.9776 19.4364C23.2962 17.463 24 15.1429 24 12.7695C23.9966 9.58799 22.7312 6.53774 20.4815 4.28805C18.2318 2.03836 15.1815 0.772972 12 0.769531V0.769531ZM12 22.7695C10.0222 22.7695 8.08879 22.183 6.4443 21.0842C4.79981 19.9854 3.51809 18.4236 2.76121 16.5964C2.00433 14.7691 1.8063 12.7584 2.19215 10.8186C2.578 8.87882 3.53041 7.09699 4.92894 5.69846C6.32746 4.29994 8.10929 3.34753 10.0491 2.96168C11.9889 2.57583 13.9996 2.77386 15.8268 3.53074C17.6541 4.28761 19.2159 5.56934 20.3147 7.21383C21.4135 8.85832 22 10.7917 22 12.7695C21.9971 15.4208 20.9426 17.9627 19.0679 19.8374C17.1931 21.7121 14.6513 22.7666 12 22.7695V22.7695ZM13 11.7695H17V13.7695H13V17.7695H11V13.7695H7.00001V11.7695H11V7.76953H13V11.7695Z" fill="#1C1C1E"/>
</g>
<defs>
<clipPath id="clip0_158_1052">
<rect width="24" height="24" fill="white" transform="translate(0 0.769531)"/>
</clipPath>
</defs>
</svg>
