<svg width="18" height="17" viewBox="0 0 18 17" fill="none" xmlns="http://www.w3.org/2000/svg">
<g clip-path="url(#clip0_940_2000)">
<path d="M13.9961 12.25C14.7378 10.9654 15.0819 9.48968 14.9848 8.00949C14.8878 6.52931 14.3541 5.11113 13.4511 3.9343C12.548 2.75748 11.3163 1.87485 9.9117 1.39804C8.50706 0.921229 6.99257 0.871649 5.55976 1.25557C4.12694 1.63949 2.84015 2.43967 1.8621 3.55492C0.884055 4.67017 0.258682 6.0504 0.0650645 7.52107C-0.128552 8.99174 0.118281 10.4868 0.774355 11.8172C1.43043 13.1476 2.46627 14.2535 3.7509 14.9952C5.47404 15.9876 7.52047 16.2559 9.44117 15.7412C11.3619 15.2266 13 13.971 13.9961 12.25V12.25ZM2.08824 5.37502C2.70631 4.30449 3.62794 3.44129 4.7366 2.89456C5.84525 2.34783 7.09113 2.14214 8.31669 2.30348C9.54225 2.46483 10.6924 2.98598 11.6218 3.80102C12.5512 4.61606 13.218 5.68838 13.5379 6.8824C13.8579 8.07641 13.8166 9.33848 13.4192 10.509C13.0219 11.6795 12.2864 12.706 11.3057 13.4585C10.325 14.211 9.14316 14.6558 7.90967 14.7366C6.67618 14.8175 5.44642 14.5307 4.3759 13.9127C2.94177 13.0826 1.89548 11.7175 1.46661 10.1169C1.03773 8.51631 1.2613 6.81097 2.08824 5.37502Z" fill="#3C3C3F"/>
<path d="M10.7485 10.3749C10.8314 10.2313 10.8539 10.0608 10.811 9.90064C10.7681 9.74053 10.6633 9.60402 10.5198 9.52114L8.17879 8.16958L8.08907 5.68497C8.08329 5.51894 8.0118 5.36201 7.89031 5.24869C7.76882 5.13538 7.6073 5.07497 7.44127 5.08074C7.27524 5.08652 7.11831 5.15802 7.005 5.27951C6.89168 5.40099 6.83127 5.56252 6.83705 5.72855L6.93608 8.557C6.93995 8.66394 6.9712 8.7681 7.02685 8.85949C7.08251 8.95089 7.16069 9.02646 7.25392 9.07898L9.89476 10.6037C10.0383 10.6865 10.2089 10.709 10.369 10.6661C10.5291 10.6232 10.6656 10.5185 10.7485 10.3749Z" fill="#3C3C3F"/>
</g>
<defs>
<clipPath id="clip0_940_2000">
<rect width="15" height="15" fill="white" transform="translate(17.7461 5.75482) rotate(120)"/>
</clipPath>
</defs>
</svg>
