<svg width="13" height="14" viewBox="0 0 13 14" fill="none" xmlns="http://www.w3.org/2000/svg">
<path d="M9.75039 3.7499C9.64881 3.64835 9.51106 3.59131 9.36743 3.59131C9.2238 3.59131 9.08605 3.64835 8.98447 3.7499L6.50039 6.23398L4.01631 3.7499C3.91473 3.64835 3.77698 3.59131 3.63335 3.59131C3.48972 3.59131 3.35197 3.64835 3.25039 3.7499C3.14884 3.85148 3.0918 3.98923 3.0918 4.13286C3.0918 4.27649 3.14884 4.41424 3.25039 4.51582L5.73447 6.9999L3.25039 9.48398C3.14884 9.58556 3.0918 9.72331 3.0918 9.86694C3.0918 10.0106 3.14884 10.1483 3.25039 10.2499C3.35197 10.3514 3.48972 10.4085 3.63335 10.4085C3.77698 10.4085 3.91473 10.3514 4.01631 10.2499L6.50039 7.76582L8.98447 10.2499C9.08605 10.3514 9.2238 10.4085 9.36743 10.4085C9.51106 10.4085 9.64881 10.3514 9.75039 10.2499C9.85194 10.1483 9.90898 10.0106 9.90898 9.86694C9.90898 9.72331 9.85194 9.58556 9.75039 9.48398L7.26631 6.9999L9.75039 4.51582C9.85194 4.41424 9.90898 4.27649 9.90898 4.13286C9.90898 3.98923 9.85194 3.85148 9.75039 3.7499Z" fill="#3C3C3F"/>
</svg>
