<svg width="8" height="8" viewBox="0 0 8 8" fill="none" xmlns="http://www.w3.org/2000/svg">
<g clip-path="url(#clip0_716_1579)">
<path d="M7.05102 1.09067L6.28968 0.304333C6.19618 0.208322 6.08445 0.131947 5.96104 0.0796871C5.83763 0.0274275 5.70503 0.000335477 5.57102 0L3.99935 0C3.61528 0.000484841 3.24312 0.133363 2.9456 0.376239C2.64808 0.619115 2.44338 0.957138 2.36602 1.33333H2.33268C1.89082 1.33386 1.4672 1.50963 1.15476 1.82207C0.84231 2.13452 0.666545 2.55814 0.666016 3V6.33333C0.666545 6.7752 0.84231 7.19881 1.15476 7.51126C1.4672 7.82371 1.89082 7.99947 2.33268 8H4.33268C4.77455 7.99947 5.19816 7.82371 5.51061 7.51126C5.82306 7.19881 5.99882 6.7752 5.99935 6.33333V6.3C6.37555 6.22263 6.71357 6.01794 6.95644 5.72042C7.19932 5.42289 7.3322 5.05073 7.33268 4.66667V1.78667C7.33318 1.52681 7.2321 1.27704 7.05102 1.09067ZM4.33268 7.33333H2.33268C2.06747 7.33333 1.81311 7.22798 1.62558 7.04044C1.43804 6.8529 1.33268 6.59855 1.33268 6.33333V3C1.33268 2.73478 1.43804 2.48043 1.62558 2.29289C1.81311 2.10536 2.06747 2 2.33268 2V4.66667C2.33321 5.10853 2.50898 5.53215 2.82142 5.84459C3.13387 6.15704 3.55748 6.3328 3.99935 6.33333H5.33268C5.33268 6.59855 5.22733 6.8529 5.03979 7.04044C4.85225 7.22798 4.5979 7.33333 4.33268 7.33333ZM5.66602 5.66667H3.99935C3.73413 5.66667 3.47978 5.56131 3.29224 5.37377C3.10471 5.18624 2.99935 4.93188 2.99935 4.66667V1.66667C2.99935 1.40145 3.10471 1.1471 3.29224 0.95956C3.47978 0.772024 3.73413 0.666667 3.99935 0.666667H5.33268V1.33333C5.33268 1.51014 5.40292 1.67971 5.52794 1.80474C5.65297 1.92976 5.82254 2 5.99935 2H6.66602V4.66667C6.66602 4.93188 6.56066 5.18624 6.37312 5.37377C6.18559 5.56131 5.93123 5.66667 5.66602 5.66667Z" fill="#3C3C3F"/>
</g>
<defs>
<clipPath id="clip0_716_1579">
<rect width="8" height="8" fill="white"/>
</clipPath>
</defs>
</svg>
