<svg width="20" height="20" viewBox="0 0 20 20" fill="none" xmlns="http://www.w3.org/2000/svg">
<g clip-path="url(#clip0_845_1732)">
<path d="M8.33268 7.89186e-05H9.99935V7.50008C9.99935 8.16312 9.73596 8.79901 9.26712 9.26785C8.79828 9.73669 8.16239 10.0001 7.49935 10.0001H6.66602V20.0001H4.99935V10.0001H4.16602C3.50297 10.0001 2.86709 9.73669 2.39825 9.26785C1.92941 8.79901 1.66602 8.16312 1.66602 7.50008V7.89186e-05H3.33268V7.50008C3.33268 7.72109 3.42048 7.93305 3.57676 8.08934C3.73304 8.24562 3.945 8.33341 4.16602 8.33341H4.99935V7.89186e-05H6.66602V8.33341H7.49935C7.72036 8.33341 7.93232 8.24562 8.0886 8.08934C8.24489 7.93305 8.33268 7.72109 8.33268 7.50008V7.89186e-05ZM18.3327 7.72258C18.3327 11.6201 15.1018 15.3817 14.166 16.3892V20.0001H12.4993V1.66675C12.4993 1.31586 12.6101 0.973923 12.8158 0.689651C13.0214 0.405379 13.3116 0.193277 13.6449 0.083565C13.9782 -0.0261467 14.3376 -0.0278704 14.6719 0.0786397C15.0063 0.18515 15.2984 0.39446 15.5068 0.676746C16.7952 2.40591 18.3327 5.03258 18.3327 7.72258ZM14.166 13.7726C17.416 9.58258 17.4327 5.87508 14.166 1.67258V13.7726Z" fill="#3C3C3F"/>
</g>
<defs>
<clipPath id="clip0_845_1732">
<rect width="20" height="20" fill="white"/>
</clipPath>
</defs>
</svg>
