<svg width="20" height="20" viewBox="0 0 20 20" fill="none" xmlns="http://www.w3.org/2000/svg">
<g clip-path="url(#clip0_716_1566)">
<path d="M14.5835 0.764404C13.6451 0.779 12.7272 1.04095 11.9224 1.5238C11.1177 2.00665 10.4546 2.6933 10.0001 3.5144C9.54566 2.6933 8.88257 2.00665 8.07783 1.5238C7.27308 1.04095 6.35517 0.779 5.41679 0.764404C3.92091 0.829397 2.51155 1.48378 1.49661 2.5846C0.481678 3.68541 -0.0563308 5.14318 0.000128002 6.6394C0.000128002 12.2852 9.13013 18.8061 9.51846 19.0827L10.0001 19.4236L10.4818 19.0827C10.8701 18.8077 20.0001 12.2852 20.0001 6.6394C20.0566 5.14318 19.5186 3.68541 18.5036 2.5846C17.4887 1.48378 16.0793 0.829397 14.5835 0.764404ZM10.0001 17.3719C7.28929 15.3469 1.66679 10.3719 1.66679 6.6394C1.60983 5.585 1.9721 4.55085 2.6746 3.76249C3.37709 2.97413 4.36282 2.49553 5.41679 2.43107C6.47077 2.49553 7.45649 2.97413 8.15899 3.76249C8.86149 4.55085 9.22376 5.585 9.16679 6.6394H10.8335C10.7765 5.585 11.1388 4.55085 11.8413 3.76249C12.5438 2.97413 13.5295 2.49553 14.5835 2.43107C15.6374 2.49553 16.6232 2.97413 17.3257 3.76249C18.0282 4.55085 18.3904 5.585 18.3335 6.6394C18.3335 10.3736 12.711 15.3469 10.0001 17.3719Z" fill="#3C3C3F"/>
</g>
<defs>
<clipPath id="clip0_716_1566">
<rect width="20" height="20" fill="white"/>
</clipPath>
</defs>
</svg>
