<svg width="20" height="20" viewBox="0 0 20 20" fill="none" xmlns="http://www.w3.org/2000/svg">
<g clip-path="url(#clip0_680_1658)">
<path d="M9.96402 20.0065L9.38312 19.5086C8.5823 18.838 1.58984 12.7991 1.58984 8.38172C1.58984 3.7568 5.3391 0.00753784 9.96402 0.00753784C14.5889 0.00753784 18.3382 3.7568 18.3382 8.38172C18.3382 12.7991 11.3457 18.838 10.5482 19.5119L9.96402 20.0065ZM9.96402 1.81828C6.34086 1.82238 3.40473 4.75852 3.40062 8.38168C3.40062 11.1568 7.70266 15.5899 9.96402 17.6189C12.2254 15.5891 16.5274 11.1534 16.5274 8.38168C16.5233 4.75852 13.5872 1.82242 9.96402 1.81828Z" fill="#3C3C3F"/>
<path d="M9.96398 11.7009C8.1307 11.7009 6.64453 10.2147 6.64453 8.38143C6.64453 6.54815 8.1307 5.06198 9.96398 5.06198C11.7973 5.06198 13.2834 6.54815 13.2834 8.38143C13.2834 10.2147 11.7973 11.7009 9.96398 11.7009ZM9.96398 6.72167C9.04734 6.72167 8.30426 7.46475 8.30426 8.3814C8.30426 9.29804 9.04734 10.0411 9.96398 10.0411C10.8806 10.0411 11.6237 9.29804 11.6237 8.3814C11.6237 7.46475 10.8807 6.72167 9.96398 6.72167Z" fill="#3C3C3F"/>
</g>
<defs>
<clipPath id="clip0_680_1658">
<rect width="20" height="20" fill="white"/>
</clipPath>
</defs>
</svg>
