<svg width="20" height="20" viewBox="0 0 20 20" fill="none" xmlns="http://www.w3.org/2000/svg">
<g clip-path="url(#clip0_680_1655)">
<path d="M18.2225 1.3436L14.5958 0.129428C14.1133 -0.0344313 13.5919 -0.0446215 13.1033 0.100262L7.115 1.7436L3.4625 0.194428C3.08269 0.0359875 2.66964 -0.0262408 2.26 0.0132662C1.85037 0.0527732 1.45682 0.192794 1.11429 0.420901C0.771758 0.649008 0.490835 0.958147 0.296452 1.32088C0.10207 1.68362 0.000239994 2.08873 0 2.50026L0 18.1286L6.65167 20.0294L13.3358 18.3628L20.0025 19.9861V3.7361C20.0022 3.19901 19.8289 2.67631 19.5083 2.2454C19.1877 1.81448 18.7368 1.49828 18.2225 1.3436V1.3436ZM12.5 1.98693V16.8494L7.5 18.0994V3.31026L12.5 1.98693ZM1.66667 2.50026C1.66695 2.36304 1.70112 2.228 1.76614 2.10716C1.83116 1.98631 1.92501 1.88339 2.03937 1.80754C2.15372 1.73169 2.28504 1.68525 2.42166 1.67235C2.55828 1.65945 2.69597 1.68049 2.8225 1.73359L5.83333 2.98443V18.0619L1.66667 16.8719V2.50026ZM18.3333 17.8586L14.1667 16.8436V1.7436L17.7292 2.93526C17.9032 2.98503 18.0563 3.0901 18.1653 3.23458C18.2743 3.37907 18.3333 3.55511 18.3333 3.7361V17.8586Z" fill="#3C3C3F"/>
</g>
<defs>
<clipPath id="clip0_680_1655">
<rect width="20" height="20" fill="white"/>
</clipPath>
</defs>
</svg>
