<svg width="24" height="24" viewBox="0 0 24 24" fill="none" xmlns="http://www.w3.org/2000/svg">
<g clip-path="url(#clip0_649_3486)">
<path d="M14 22C14 20.8954 13.1046 20 12 20C10.8954 20 10 20.8954 10 22C10 23.1046 10.8954 24 12 24C13.1046 24 14 23.1046 14 22Z" fill="#3C3C3F"/>
<path d="M14 12C14 10.8954 13.1046 10 12 10C10.8954 10 10 10.8954 10 12C10 13.1046 10.8954 14 12 14C13.1046 14 14 13.1046 14 12Z" fill="#3C3C3F"/>
<path d="M14 1.99999C14 0.895413 13.1046 -2.28882e-05 12 -2.28882e-05C10.8954 -2.28882e-05 10 0.895413 10 1.99999C10 3.10456 10.8954 4 12 4C13.1046 4 14 3.10456 14 1.99999Z" fill="#3C3C3F"/>
</g>
<defs>
<clipPath id="clip0_649_3486">
<rect width="24" height="24" fill="white" transform="matrix(0 -1 1 0 0 24)"/>
</clipPath>
</defs>
</svg>
