<svg width="23" height="23" viewBox="0 0 23 23" fill="none" xmlns="http://www.w3.org/2000/svg">
<circle cx="11.5" cy="11.5" r="11.5" fill="#FFE100"/>
<circle cx="11.5" cy="11.5" r="9.5" fill="#FFBF00"/>
<g filter="url(#filter0_di_1308_2603)">
<path d="M7.66515 17L6.58428 12.678H5V11.3503H6.25854L5.17768 7H7.19134L8.13895 11.3503H9.53075L10.5672 7H12.4328L13.4841 11.3503H14.8907L15.8383 7H17.8223L16.7415 11.3503H18V12.678H16.4157L15.3349 17H13.2323L12.2107 12.678H10.7893L9.76765 17H7.66515ZM8.42027 12.678L8.76082 14.2316H8.84966L9.21982 12.678H8.42027ZM11.115 11.3503H11.885L11.5444 9.9096H11.4556L11.115 11.3503ZM13.8098 12.678L14.18 14.2316H14.2688L14.6093 12.678H13.8098Z" fill="#FFED72"/>
</g>
<defs>
<filter id="filter0_di_1308_2603" x="2.4" y="4.6" width="17.8" height="14.8" filterUnits="userSpaceOnUse" color-interpolation-filters="sRGB">
<feFlood flood-opacity="0" result="BackgroundImageFix"/>
<feColorMatrix in="SourceAlpha" type="matrix" values="0 0 0 0 0 0 0 0 0 0 0 0 0 0 0 0 0 0 127 0" result="hardAlpha"/>
<feOffset dx="-0.2"/>
<feGaussianBlur stdDeviation="1.2"/>
<feComposite in2="hardAlpha" operator="out"/>
<feColorMatrix type="matrix" values="0 0 0 0 0.912777 0 0 0 0 0.562879 0 0 0 0 0 0 0 0 1 0"/>
<feBlend mode="normal" in2="BackgroundImageFix" result="effect1_dropShadow_1308_2603"/>
<feBlend mode="normal" in="SourceGraphic" in2="effect1_dropShadow_1308_2603" result="shape"/>
<feColorMatrix in="SourceAlpha" type="matrix" values="0 0 0 0 0 0 0 0 0 0 0 0 0 0 0 0 0 0 127 0" result="hardAlpha"/>
<feOffset dx="0.2"/>
<feGaussianBlur stdDeviation="0.15"/>
<feComposite in2="hardAlpha" operator="arithmetic" k2="-1" k3="1"/>
<feColorMatrix type="matrix" values="0 0 0 0 1 0 0 0 0 1 0 0 0 0 1 0 0 0 0.25 0"/>
<feBlend mode="normal" in2="shape" result="effect2_innerShadow_1308_2603"/>
</filter>
</defs>
</svg>
