<svg width="20" height="20" viewBox="0 0 20 20" fill="none" xmlns="http://www.w3.org/2000/svg">
<path d="M15.0007 9.99989C14.9966 9.56147 14.8199 9.14231 14.509 8.83323L10.934 5.2499C10.7778 5.09469 10.5666 5.00757 10.3465 5.00757C10.1263 5.00757 9.91512 5.09469 9.75898 5.2499C9.68088 5.32736 9.61888 5.41953 9.57657 5.52108C9.53427 5.62263 9.51249 5.73155 9.51249 5.84156C9.51249 5.95157 9.53427 6.06049 9.57657 6.16204C9.61888 6.26359 9.68088 6.35576 9.75898 6.43323L12.5007 9.16656H4.16732C3.9463 9.16656 3.73434 9.25435 3.57806 9.41064C3.42178 9.56692 3.33398 9.77888 3.33398 9.99989C3.33398 10.2209 3.42178 10.4329 3.57806 10.5891C3.73434 10.7454 3.9463 10.8332 4.16732 10.8332H12.5007L9.75898 13.5749C9.60206 13.7307 9.51347 13.9425 9.51269 14.1636C9.51191 14.3847 9.599 14.5971 9.75482 14.7541C9.91063 14.911 10.1224 14.9996 10.3435 15.0003C10.5647 15.0011 10.7771 14.914 10.934 14.7582L14.509 11.1749C14.822 10.8638 14.9988 10.4412 15.0007 9.99989Z" fill="#3C3C3F"/>
</svg>
