<svg width="28" height="28" viewBox="0 0 28 28" fill="none" xmlns="http://www.w3.org/2000/svg">
<g clip-path="url(#clip0_756_1828)" filter="url(#filter0_d_756_1828)">
<path d="M23.9993 18.8222L18.781 13.6039C20.1365 11.946 20.803 9.83063 20.6425 7.69518C20.4821 5.55974 19.507 3.56766 17.919 2.13098C16.331 0.694309 14.2515 -0.0770391 12.1107 -0.0235126C9.96991 0.030014 7.93158 0.90432 6.41734 2.41856C4.9031 3.9328 4.02879 5.97113 3.97527 8.11192C3.92174 10.2527 4.69309 12.3322 6.12976 13.9202C7.56644 15.5082 9.55852 16.4833 11.694 16.6438C13.8294 16.8042 15.9448 16.1377 17.6027 14.7822L22.821 20.0006L23.9993 18.8222ZM12.3327 15.0006C11.0141 15.0006 9.72519 14.6096 8.62886 13.877C7.53253 13.1445 6.67805 12.1033 6.17347 10.8851C5.66888 9.66693 5.53686 8.32649 5.79409 7.03328C6.05133 5.74008 6.68627 4.55219 7.61862 3.61984C8.55097 2.68749 9.73885 2.05255 11.0321 1.79532C12.3253 1.53808 13.6657 1.6701 14.8839 2.17469C16.1021 2.67927 17.1433 3.53375 17.8758 4.63008C18.6083 5.72641 18.9993 7.01534 18.9993 8.33388C18.9973 10.1014 18.2943 11.7959 17.0445 13.0457C15.7947 14.2955 14.1002 14.9986 12.3327 15.0006Z" fill="#3C3C3F"/>
</g>
<defs>
<filter id="filter0_d_756_1828" x="0" y="0" width="28" height="28" filterUnits="userSpaceOnUse" color-interpolation-filters="sRGB">
<feFlood flood-opacity="0" result="BackgroundImageFix"/>
<feColorMatrix in="SourceAlpha" type="matrix" values="0 0 0 0 0 0 0 0 0 0 0 0 0 0 0 0 0 0 127 0" result="hardAlpha"/>
<feOffset dy="4"/>
<feGaussianBlur stdDeviation="2"/>
<feComposite in2="hardAlpha" operator="out"/>
<feColorMatrix type="matrix" values="0 0 0 0 0 0 0 0 0 0 0 0 0 0 0 0 0 0 0.25 0"/>
<feBlend mode="normal" in2="BackgroundImageFix" result="effect1_dropShadow_756_1828"/>
<feBlend mode="normal" in="SourceGraphic" in2="effect1_dropShadow_756_1828" result="shape"/>
</filter>
<clipPath id="clip0_756_1828">
<rect width="20" height="20" fill="white" transform="translate(4)"/>
</clipPath>
</defs>
</svg>
