<svg width="13" height="13" viewBox="0 0 13 13" fill="none" xmlns="http://www.w3.org/2000/svg">
<g clip-path="url(#clip0_759_1521)">
<path d="M12.9998 12.2346L9.60784 8.84266C10.4889 7.76507 10.9221 6.39004 10.8178 5.002C10.7136 3.61397 10.0798 2.31911 9.04753 1.38527C8.01532 0.451435 6.66366 -0.0499411 5.27215 -0.0151489C3.88063 0.0196434 2.55572 0.587942 1.57147 1.5722C0.58721 2.55646 0.0189109 3.88137 -0.0158813 5.27288C-0.0506735 6.6644 0.450703 8.01605 1.38454 9.04827C2.31838 10.0805 3.61323 10.7143 5.00127 10.8186C6.38931 10.9229 7.76433 10.4897 8.84193 9.60858L12.2338 13.0005L12.9998 12.2346ZM5.41643 9.75049C4.55937 9.75049 3.72157 9.49635 3.00896 9.02019C2.29634 8.54404 1.74093 7.86727 1.41295 7.07545C1.08497 6.28364 0.999154 5.41235 1.16636 4.57177C1.33356 3.73118 1.74627 2.95906 2.3523 2.35303C2.95832 1.747 3.73045 1.33429 4.57103 1.16709C5.41162 0.999887 6.28291 1.0857 7.07472 1.41368C7.86653 1.74166 8.54331 2.29707 9.01946 3.00969C9.49561 3.7223 9.74976 4.56011 9.74976 5.41716C9.74847 6.56603 9.29151 7.66749 8.47913 8.47986C7.66675 9.29224 6.5653 9.7492 5.41643 9.75049Z" fill="#6F6F71"/>
</g>
<defs>
<clipPath id="clip0_759_1521">
<rect width="13" height="13" fill="white"/>
</clipPath>
</defs>
</svg>
