<svg width="20" height="20" viewBox="0 0 20 20" fill="none" xmlns="http://www.w3.org/2000/svg">
<g clip-path="url(#clip0_716_1565)">
<path d="M16.1115 12.2229C15.4814 12.2235 14.8609 12.3773 14.3036 12.6711C13.7462 12.965 13.2687 13.39 12.9123 13.9096L7.48813 11.4605C7.87339 10.5301 7.87489 9.48519 7.4923 8.55378L12.909 6.09212C13.4372 6.85608 14.2217 7.40542 15.1203 7.64049C16.0189 7.87556 16.9719 7.78079 17.8066 7.37337C18.6412 6.96595 19.3022 6.27287 19.6697 5.41984C20.0371 4.56681 20.0866 3.61034 19.8093 2.72393C19.5319 1.83751 18.946 1.07986 18.1579 0.588413C17.3698 0.096962 16.4316 -0.0957392 15.5136 0.0452638C14.5956 0.186267 13.7585 0.651634 13.1542 1.35695C12.5499 2.06227 12.2184 2.96082 12.2198 3.88962C12.2233 4.10945 12.2456 4.32858 12.2865 4.54462L6.52814 7.16128C5.97509 6.64313 5.28273 6.29781 4.53611 6.16775C3.7895 6.03769 3.02116 6.12855 2.32548 6.42916C1.62979 6.72978 1.03707 7.22706 0.620132 7.85992C0.203191 8.49277 -0.0198099 9.23364 -0.021475 9.99149C-0.0231401 10.7493 0.196603 11.4912 0.610759 12.1259C1.02492 12.7605 1.61545 13.2604 2.3098 13.5641C3.00415 13.8678 3.77209 13.962 4.51927 13.8352C5.26644 13.7084 5.96031 13.3662 6.51564 12.8505L12.289 15.4571C12.2489 15.673 12.2268 15.8918 12.2231 16.1113C12.223 16.8806 12.4509 17.6326 12.8782 18.2723C13.3055 18.912 13.9129 19.4106 14.6236 19.7051C15.3343 19.9995 16.1163 20.0766 16.8708 19.9266C17.6253 19.7766 18.3184 19.4061 18.8624 18.8622C19.4063 18.3182 19.7767 17.6252 19.9268 16.8707C20.0768 16.1161 19.9997 15.3341 19.7053 14.6234C19.4108 13.9127 18.9122 13.3053 18.2725 12.878C17.6328 12.4508 16.8807 12.2228 16.1115 12.2229ZM16.1115 1.66712C16.5511 1.66695 16.9809 1.79716 17.3465 2.04127C17.712 2.28538 17.997 2.63243 18.1654 3.03853C18.3337 3.44462 18.3779 3.89152 18.2922 4.32269C18.2065 4.75387 17.9949 5.14996 17.6841 5.46087C17.3734 5.77177 16.9773 5.98353 16.5462 6.06935C16.1151 6.15517 15.6681 6.11121 15.262 5.94302C14.8558 5.77483 14.5087 5.48996 14.2644 5.12446C14.0202 4.75895 13.8898 4.32922 13.8898 3.88962C13.8902 3.30045 14.1244 2.73553 14.541 2.31885C14.9575 1.90217 15.5223 1.66778 16.1115 1.66712ZM3.8898 12.2229C3.4502 12.2231 3.02042 12.0929 2.65482 11.8488C2.28922 11.6047 2.00423 11.2576 1.83589 10.8515C1.66754 10.4454 1.62341 9.99855 1.70907 9.56737C1.79473 9.1362 2.00634 8.74011 2.31713 8.4292C2.62792 8.11829 3.02393 7.90654 3.45507 7.82072C3.88622 7.73489 4.33313 7.77886 4.73929 7.94705C5.14545 8.11524 5.4926 8.4001 5.73685 8.76561C5.9811 9.13111 6.11147 9.56085 6.11147 10.0005C6.11081 10.5895 5.87655 11.1543 5.46008 11.571C5.0436 11.9876 4.4789 12.2221 3.8898 12.2229ZM16.1115 18.3338C15.6719 18.3338 15.2422 18.2034 14.8767 17.9592C14.5112 17.715 14.2264 17.3679 14.0581 16.9618C13.8899 16.5557 13.8459 16.1088 13.9317 15.6777C14.0174 15.2466 14.2291 14.8506 14.5399 14.5397C14.8507 14.2289 15.2468 14.0172 15.6779 13.9315C16.109 13.8457 16.5559 13.8897 16.962 14.058C17.3681 14.2262 17.7152 14.511 17.9594 14.8765C18.2036 15.242 18.334 15.6717 18.334 16.1113C18.3335 16.7006 18.0992 17.2656 17.6825 17.6823C17.2658 18.099 16.7008 18.3333 16.1115 18.3338Z" fill="#3C3C3F"/>
</g>
<defs>
<clipPath id="clip0_716_1565">
<rect width="20" height="20" fill="white"/>
</clipPath>
</defs>
</svg>
