<svg width="36" height="36" viewBox="0 0 36 36" fill="none" xmlns="http://www.w3.org/2000/svg">
<g clip-path="url(#clip0_341_1524)">
<path d="M27 -1.52588e-05H21V1.49998C21 2.29563 20.6839 3.0587 20.1213 3.62131C19.5587 4.18391 18.7956 4.49998 18 4.49998C17.2044 4.49998 16.4413 4.18391 15.8787 3.62131C15.3161 3.0587 15 2.29563 15 1.49998V-1.52588e-05H9C7.80653 -1.52588e-05 6.66193 0.47409 5.81802 1.318C4.97411 2.16192 4.5 3.30651 4.5 4.49998V36H15V34.5C15 33.7043 15.3161 32.9413 15.8787 32.3787C16.4413 31.8161 17.2044 31.5 18 31.5C18.7956 31.5 19.5587 31.8161 20.1213 32.3787C20.6839 32.9413 21 33.7043 21 34.5V36H31.5V4.49998C31.5 3.30651 31.0259 2.16192 30.182 1.318C29.3381 0.47409 28.1935 -1.52588e-05 27 -1.52588e-05V-1.52588e-05ZM23.811 33C23.4795 31.7107 22.7287 30.5683 21.6767 29.7525C20.6246 28.9368 19.3312 28.4941 18 28.4941C16.6688 28.4941 15.3754 28.9368 14.3233 29.7525C13.2713 30.5683 12.5205 31.7107 12.189 33H7.5V25.5H12V22.5H7.5V4.49998C7.5 4.10216 7.65804 3.72063 7.93934 3.43932C8.22064 3.15802 8.60218 2.99998 9 2.99998H12.189C12.5205 4.28927 13.2713 5.43171 14.3233 6.24745C15.3754 7.06319 16.6688 7.5059 18 7.5059C19.3312 7.5059 20.6246 7.06319 21.6767 6.24745C22.7287 5.43171 23.4795 4.28927 23.811 2.99998H27C27.3978 2.99998 27.7794 3.15802 28.0607 3.43932C28.342 3.72063 28.5 4.10216 28.5 4.49998V22.5H24V25.5H28.5V33H23.811Z" fill="#374957"/>
<path d="M20.9997 22.5H14.9998V25.5H20.9997V22.5Z" fill="#374957"/>
</g>
<defs>
<clipPath id="clip0_341_1524">
<rect width="36" height="36" fill="white"/>
</clipPath>
</defs>
</svg>
